<svg width="160" height="40" viewBox="0 0 160 40" fill="none" xmlns="http://www.w3.org/2000/svg">
<rect width="160" height="40" rx="3" fill="#8566A7" fill-opacity="0.3"/>
<path d="M17.6 8.07434C16.0339 8.07434 14.4831 8.38281 13.0362 8.98213C11.5894 9.58145 10.2747 10.4599 9.16727 11.5673C6.93077 13.8038 5.67432 16.8371 5.67432 20C5.67432 25.2712 9.09699 29.7433 13.8315 31.3294C14.4278 31.4249 14.6186 31.0552 14.6186 30.7332V28.7177C11.3152 29.4333 10.6116 27.1197 10.6116 27.1197C10.063 25.7363 9.2878 25.3666 9.2878 25.3666C8.20256 24.6272 9.37128 24.6511 9.37128 24.6511C10.5639 24.7345 11.1959 25.8794 11.1959 25.8794C12.2334 27.6921 13.9865 27.1555 14.6663 26.8692C14.7736 26.0941 15.0837 25.5693 15.4176 25.2712C12.7701 24.9731 9.99142 23.9474 9.99142 19.4038C9.99142 18.08 10.4446 17.0186 11.2198 16.1719C11.1005 15.8737 10.6831 14.6335 11.339 13.0235C11.339 13.0235 12.3408 12.7015 14.6186 14.2399C15.5607 13.9776 16.5863 13.8464 17.6 13.8464C18.6137 13.8464 19.6393 13.9776 20.5814 14.2399C22.8592 12.7015 23.861 13.0235 23.861 13.0235C24.5169 14.6335 24.0995 15.8737 23.9803 16.1719C24.7554 17.0186 25.2086 18.08 25.2086 19.4038C25.2086 23.9594 22.418 24.9611 19.7586 25.2593C20.1879 25.629 20.5814 26.3564 20.5814 27.4655V30.7332C20.5814 31.0552 20.7722 31.4368 21.3805 31.3294C26.115 29.7314 29.5257 25.2712 29.5257 20C29.5257 18.4339 29.2172 16.8832 28.6179 15.4363C28.0186 13.9894 27.1402 12.6747 26.0328 11.5673C24.9253 10.4599 23.6107 9.58145 22.1638 8.98213C20.7169 8.38281 19.1661 8.07434 17.6 8.07434Z" fill="#EAEFE4" fill-opacity="0.9"/>
<path d="M42.85 13.09C42.8233 12.9767 42.7833 12.81 42.73 12.59C42.6833 12.3633 42.63 12.1233 42.57 11.87C42.51 11.61 42.4533 11.3733 42.4 11.16C42.3467 10.94 42.31 10.78 42.29 10.68H42.25C42.23 10.78 42.1933 10.94 42.14 11.16C42.0933 11.3733 42.04 11.61 41.98 11.87C41.92 12.1233 41.8633 12.3633 41.81 12.59C41.7567 12.8167 41.7167 12.99 41.69 13.11L41.25 15H39.65L38.1 9.54H39.58L40.21 11.96C40.2567 12.1267 40.2967 12.3267 40.33 12.56C40.37 12.7933 40.4067 13.02 40.44 13.24C40.4733 13.4533 40.4967 13.6233 40.51 13.75H40.55C40.5567 13.6567 40.57 13.5333 40.59 13.38C40.61 13.22 40.6333 13.0567 40.66 12.89C40.6933 12.7233 40.72 12.5733 40.74 12.44C40.7667 12.3 40.7867 12.2067 40.8 12.16L41.47 9.54H43.11L43.75 12.16C43.7767 12.2533 43.8067 12.4033 43.84 12.61C43.88 12.8167 43.9133 13.0267 43.94 13.24C43.9733 13.4533 43.99 13.6233 43.99 13.75H44.03C44.0433 13.6367 44.0667 13.4733 44.1 13.26C44.1333 13.04 44.17 12.81 44.21 12.57C44.2567 12.33 44.3033 12.1267 44.35 11.96L45 9.54H46.46L44.89 15H43.27L42.85 13.09ZM49.6245 9.44C50.3845 9.44 50.9811 9.65333 51.4145 10.08C51.8545 10.5067 52.0745 11.12 52.0745 11.92V12.65H48.5645C48.5845 13.0633 48.7111 13.39 48.9445 13.63C49.1845 13.8633 49.5278 13.98 49.9745 13.98C50.3145 13.98 50.6245 13.9467 50.9045 13.88C51.1845 13.8133 51.4711 13.7133 51.7645 13.58V14.71C51.4978 14.8433 51.2145 14.94 50.9145 15C50.6145 15.0667 50.2478 15.1 49.8145 15.1C49.2745 15.1 48.7945 15 48.3745 14.8C47.9611 14.5933 47.6345 14.2833 47.3945 13.87C47.1545 13.4567 47.0345 12.9367 47.0345 12.31C47.0345 11.3567 47.2711 10.64 47.7445 10.16C48.2245 9.68 48.8511 9.44 49.6245 9.44ZM49.6645 10.51C49.3645 10.51 49.1178 10.6067 48.9245 10.8C48.7378 10.9867 48.6311 11.2667 48.6045 11.64H50.6645C50.6578 11.3133 50.5711 11.0433 50.4045 10.83C50.2445 10.6167 49.9978 10.51 49.6645 10.51ZM60.8989 12.26C60.8989 13.1667 60.6589 13.8667 60.1789 14.36C59.7056 14.8533 59.0589 15.1 58.2389 15.1C57.7256 15.1 57.2689 14.99 56.8689 14.77C56.4756 14.55 56.1656 14.23 55.9389 13.81C55.7122 13.3833 55.5989 12.8667 55.5989 12.26C55.5989 11.3533 55.8356 10.6567 56.3089 10.17C56.7889 9.68333 57.4422 9.44 58.2689 9.44C58.7822 9.44 59.2356 9.55 59.6289 9.77C60.0222 9.98333 60.3322 10.3 60.5589 10.72C60.7856 11.14 60.8989 11.6533 60.8989 12.26ZM57.1389 12.26C57.1389 12.7933 57.2256 13.21 57.3989 13.51C57.5722 13.8033 57.8589 13.95 58.2589 13.95C58.6456 13.95 58.9256 13.8033 59.0989 13.51C59.2722 13.21 59.3589 12.7933 59.3589 12.26C59.3589 11.72 59.2722 11.3067 59.0989 11.02C58.9256 10.7333 58.6422 10.59 58.2489 10.59C57.8556 10.59 57.5722 10.7333 57.3989 11.02C57.2256 11.3067 57.1389 11.72 57.1389 12.26ZM65.2289 9.44C65.8289 9.44 66.3022 9.6 66.6489 9.92C66.9956 10.2333 67.1689 10.74 67.1689 11.44V15H65.6689V11.82C65.6689 11.0333 65.3756 10.64 64.7889 10.64C64.3356 10.64 64.0256 10.7967 63.8589 11.11C63.6989 11.4167 63.6189 11.86 63.6189 12.44V15H62.1089V9.54H63.2689L63.4789 10.27H63.5389C63.8989 9.71667 64.4622 9.44 65.2289 9.44ZM43.776 22.584H48.304V28.504C47.7067 28.7067 47.0827 28.8667 46.432 28.984C45.792 29.1013 45.0613 29.16 44.24 29.16C42.5333 29.16 41.2213 28.6587 40.304 27.656C39.3867 26.6533 38.928 25.192 38.928 23.272C38.928 22.0773 39.1573 21.0427 39.616 20.168C40.0853 19.2933 40.7627 18.616 41.648 18.136C42.5333 17.656 43.616 17.416 44.896 17.416C45.504 17.416 46.1013 17.48 46.688 17.608C47.2747 17.736 47.808 17.9067 48.288 18.12L47.488 20.056C47.136 19.8747 46.736 19.7253 46.288 19.608C45.84 19.4907 45.3707 19.432 44.88 19.432C44.176 19.432 43.5627 19.592 43.04 19.912C42.528 20.232 42.128 20.6853 41.84 21.272C41.5627 21.848 41.424 22.5307 41.424 23.32C41.424 24.0667 41.5253 24.728 41.728 25.304C41.9307 25.88 42.2507 26.3333 42.688 26.664C43.1253 26.984 43.696 27.144 44.4 27.144C44.7413 27.144 45.0293 27.128 45.264 27.096C45.5093 27.064 45.7333 27.0267 45.936 26.984V24.6H43.776V22.584ZM51.9781 16.824C52.3301 16.824 52.6341 16.9093 52.8901 17.08C53.1568 17.24 53.2901 17.5493 53.2901 18.008C53.2901 18.4453 53.1568 18.7493 52.8901 18.92C52.6341 19.0907 52.3301 19.176 51.9781 19.176C51.6155 19.176 51.3061 19.0907 51.0501 18.92C50.7941 18.7493 50.6661 18.4453 50.6661 18.008C50.6661 17.5493 50.7941 17.24 51.0501 17.08C51.3061 16.9093 51.6155 16.824 51.9781 16.824ZM53.1781 20.264V29H50.7621V20.264H53.1781ZM59.2874 27.256C59.554 27.256 59.81 27.2293 60.0554 27.176C60.3007 27.1227 60.546 27.0587 60.7914 26.984V28.76C60.5354 28.8667 60.2154 28.9573 59.8314 29.032C59.458 29.1173 59.0474 29.16 58.5994 29.16C58.0767 29.16 57.6074 29.0747 57.1914 28.904C56.786 28.7333 56.4607 28.44 56.2154 28.024C55.9807 27.5973 55.8634 27.0107 55.8634 26.264V22.056H54.7274V21.048L56.0394 20.248L56.7274 18.408H58.2474V20.264H60.6954V22.056H58.2474V26.264C58.2474 26.5947 58.3434 26.8453 58.5354 27.016C58.7274 27.176 58.978 27.256 59.2874 27.256ZM72.0969 29H69.6809V24.072H65.1529V29H62.7369V17.576H65.1529V22.056H69.6809V17.576H72.0969V29ZM82.7473 20.264V29H80.8913L80.5873 27.88H80.4433C80.1659 28.328 79.7873 28.6533 79.3073 28.856C78.8273 29.0587 78.3099 29.16 77.7552 29.16C76.8273 29.16 76.0753 28.9093 75.4993 28.408C74.9339 27.896 74.6513 27.08 74.6513 25.96V20.264H77.0833V25.352C77.0833 25.9707 77.1899 26.44 77.4033 26.76C77.6273 27.0693 77.9793 27.224 78.4593 27.224C79.1846 27.224 79.6753 26.9787 79.9313 26.488C80.1979 25.9973 80.3313 25.288 80.3313 24.36V20.264H82.7473ZM87.5215 19.672C87.5215 20.0027 87.5108 20.3173 87.4895 20.616C87.4682 20.9147 87.4468 21.176 87.4255 21.4H87.5215C87.7562 21.0373 88.0708 20.7333 88.4655 20.488C88.8602 20.232 89.3722 20.104 90.0015 20.104C90.9722 20.104 91.7615 20.488 92.3695 21.256C92.9775 22.0133 93.2815 23.1333 93.2815 24.616C93.2815 26.1093 92.9722 27.24 92.3535 28.008C91.7455 28.776 90.9402 29.16 89.9375 29.16C89.2975 29.16 88.7908 29.048 88.4175 28.824C88.0548 28.5893 87.7562 28.3333 87.5215 28.056H87.3615L86.9615 29H85.1055V16.84H87.5215V19.672ZM89.2175 22.024C88.6095 22.024 88.1722 22.216 87.9055 22.6C87.6495 22.984 87.5215 23.5867 87.5215 24.408V24.696C87.5215 25.528 87.6442 26.1573 87.8895 26.584C88.1455 27 88.5988 27.208 89.2495 27.208C89.7722 27.208 90.1668 26.984 90.4335 26.536C90.7002 26.088 90.8335 25.4373 90.8335 24.584C90.8335 22.8773 90.2948 22.024 89.2175 22.024Z" fill="#EAEFE4" fill-opacity="0.9"/>
</svg>
