<svg width="20" height="20" viewBox="0 0 20 20" fill="none" xmlns="http://www.w3.org/2000/svg">
<path d="M9.40002 16.161L16.796 8.765C15.5518 8.24522 14.4218 7.4862 13.47 6.531C12.5144 5.57905 11.755 4.44865 11.235 3.204L3.83902 10.6C3.26202 11.177 2.97302 11.466 2.72502 11.784C2.43241 12.1595 2.18128 12.5655 1.97602 12.995C1.80302 13.359 1.67402 13.747 1.41602 14.521L0.054019 18.604C-0.00866732 18.7909 -0.0179678 18.9917 0.0271628 19.1836C0.0722933 19.3756 0.170066 19.5511 0.30949 19.6905C0.448915 19.83 0.624464 19.9277 0.816406 19.9729C1.00835 20.018 1.20907 20.0087 1.39602 19.946L5.47902 18.584C6.25402 18.326 6.64102 18.197 7.00502 18.024C7.43635 17.8187 7.84002 17.569 8.21602 17.275C8.53402 17.027 8.82302 16.738 9.40002 16.161ZM18.848 6.713C19.5855 5.97556 19.9997 4.97539 19.9997 3.9325C19.9997 2.88961 19.5855 1.88943 18.848 1.152C18.1106 0.414565 17.1104 0.000278481 16.0675 0.000278473C15.0246 0.000278465 14.0245 0.414565 13.287 1.152L12.4 2.039L12.438 2.15C12.875 3.40078 13.5903 4.53599 14.53 5.47C15.492 6.43782 16.6669 7.16724 17.961 7.6L18.848 6.713Z" fill="#EAEFE4"/>
</svg>
